<?xml version="1.0" standalone="no"?>
<!DOCTYPE svg PUBLIC "-//W3C//DTD SVG 20010904//EN"
 "http://www.w3.org/TR/2001/REC-SVG-20010904/DTD/svg10.dtd">
<svg version="1.0" xmlns="http://www.w3.org/2000/svg"
 width="814.000000pt" height="814.000000pt" viewBox="0 0 814.000000 814.000000"
 preserveAspectRatio="xMidYMid meet">
<metadata>
Created by potrace 1.11, written by Peter Selinger 2001-2013
</metadata>
<g transform="translate(0.000000,814.000000) scale(0.100000,-0.100000)"
fill="#000000" stroke="none">
<path d="M2560 6448 c-14 -5 -85 -11 -159 -13 -74 -3 -143 -7 -153 -11 -11 -3
-56 -7 -101 -9 -45 -2 -100 -8 -121 -14 -22 -5 -44 -8 -48 -5 -4 3 -8 -1 -8
-8 0 -8 -12 -13 -32 -12 -18 1 -38 -2 -43 -7 -6 -4 -25 -10 -42 -14 -18 -3
-43 -9 -57 -15 -15 -5 -26 -7 -26 -4 0 4 -6 1 -13 -5 -8 -6 -22 -12 -33 -14
-28 -5 -136 -56 -156 -74 -10 -9 -18 -13 -18 -9 0 4 -15 -7 -32 -23 -18 -17
-38 -31 -44 -31 -6 0 -17 -7 -24 -15 -7 -8 -16 -12 -21 -9 -5 3 -8 0 -7 -6 2
-7 -6 -17 -16 -23 -28 -17 -84 -67 -115 -101 -36 -41 -68 -68 -78 -68 -4 1
-17 -7 -28 -17 -11 -10 -35 -24 -53 -32 -18 -8 -30 -19 -28 -26 3 -7 -1 -10
-8 -7 -7 3 -21 -4 -31 -16 -10 -11 -23 -20 -30 -20 -6 0 -22 -11 -35 -25 -12
-13 -27 -22 -33 -18 -6 3 -7 1 -3 -5 4 -7 1 -12 -9 -12 -9 0 -13 -4 -10 -10 3
-5 -1 -10 -10 -10 -9 0 -13 -4 -10 -10 3 -5 0 -10 -7 -10 -25 0 -78 -64 -78
-95 0 -15 3 -26 6 -23 3 3 17 -5 31 -18 14 -13 32 -24 40 -24 8 0 12 -4 9 -9
-4 -5 5 -8 18 -7 18 2 23 -1 18 -12 -3 -9 -1 -13 5 -9 6 4 16 0 23 -8 7 -8 19
-15 27 -15 8 0 11 -5 7 -12 -4 -7 -3 -8 4 -4 6 4 31 -3 54 -16 24 -12 52 -23
63 -25 11 -2 22 -8 23 -13 2 -6 9 -10 16 -10 7 0 28 -8 47 -17 19 -10 43 -19
54 -20 10 -2 29 -12 40 -23 12 -11 25 -20 29 -20 4 0 14 -7 22 -15 9 -8 13
-15 9 -15 -3 0 13 -21 37 -46 24 -26 42 -50 40 -55 -1 -5 4 -8 10 -7 7 2 12
-3 10 -10 -1 -6 2 -11 6 -10 10 4 92 -78 92 -92 0 -6 5 -8 10 -5 6 3 10 0 10
-8 0 -7 14 -26 30 -42 16 -16 30 -34 30 -40 0 -7 9 -20 20 -30 11 -10 20 -25
20 -33 0 -9 3 -12 6 -9 11 11 106 -187 118 -246 2 -7 6 -20 10 -29 4 -9 9 -22
10 -30 2 -7 6 -20 9 -28 4 -8 8 -26 11 -40 2 -14 9 -37 15 -52 6 -16 8 -28 5
-28 -4 0 -1 -6 5 -13 6 -8 12 -22 14 -33 2 -10 7 -28 11 -39 5 -11 14 -36 21
-56 8 -20 11 -40 7 -44 -4 -5 -1 -5 6 -1 11 7 16 -10 15 -51 -1 -7 3 -10 8 -7
5 3 9 -3 9 -14 0 -17 15 -56 39 -102 4 -8 7 -23 5 -33 -1 -9 2 -15 7 -11 5 3
9 -2 9 -10 0 -9 9 -35 19 -58 21 -47 38 -90 39 -98 0 -3 7 -18 16 -34 8 -16
12 -34 9 -39 -3 -6 -1 -7 5 -3 8 4 12 0 12 -11 0 -10 8 -30 17 -43 10 -14 17
-26 15 -28 -1 -1 19 -44 45 -95 26 -50 46 -95 45 -98 -1 -4 8 -15 18 -24 11
-10 20 -23 20 -30 0 -7 14 -31 30 -53 17 -23 30 -46 30 -51 0 -5 7 -14 15 -21
8 -7 12 -17 8 -23 -3 -6 -1 -7 5 -3 7 4 12 1 12 -9 0 -9 4 -13 10 -10 6 3 10
0 10 -8 0 -8 7 -20 15 -27 8 -7 12 -17 8 -24 -3 -6 -3 -8 2 -4 5 5 19 -9 33
-29 14 -20 32 -45 41 -55 40 -48 55 -66 89 -103 20 -22 36 -44 34 -50 -2 -5 0
-7 4 -2 4 4 18 -2 30 -14 13 -12 34 -27 46 -34 13 -6 22 -17 21 -23 -2 -7 0
-11 5 -9 14 4 112 -73 112 -88 0 -8 9 -34 19 -58 22 -49 50 -124 52 -135 0 -4
6 -20 14 -37 23 -52 24 -63 10 -75 -8 -7 -13 -17 -12 -23 1 -7 -4 -11 -11 -9
-8 1 -11 -2 -7 -8 4 -6 1 -17 -5 -25 -18 -22 -20 -85 -3 -78 8 3 11 0 8 -8 -6
-15 38 -68 58 -71 7 0 21 -2 32 -3 11 -1 24 -3 28 -4 4 0 3 -10 -3 -22 -18
-32 -20 -160 -3 -192 7 -15 11 -33 7 -39 -4 -6 -3 -9 2 -6 5 3 20 -12 34 -33
13 -21 29 -39 36 -39 6 0 15 -7 18 -15 3 -9 21 -22 41 -31 37 -15 56 -54 37
-77 -12 -14 -11 -76 2 -95 4 -7 15 -11 23 -8 13 5 14 0 8 -31 -4 -21 -12 -41
-17 -44 -6 -4 -8 -14 -5 -23 4 -9 2 -16 -4 -16 -24 0 -41 -97 -24 -137 5 -10
9 -21 9 -25 1 -4 10 -18 21 -30 10 -13 18 -25 18 -28 -1 -3 5 -12 13 -21 8 -9
12 -19 9 -22 -3 -4 -2 -5 2 -2 3 3 15 -2 25 -12 10 -9 21 -13 25 -9 4 4 12 -3
18 -15 10 -18 8 -65 -7 -129 -3 -13 58 -15 490 -18 l493 -2 -7 22 c-4 13 -8
31 -8 40 0 9 -4 14 -8 12 -4 -3 -9 2 -9 10 -3 29 -4 34 -11 42 -5 4 -8 17 -8
29 0 11 -4 25 -10 31 -5 5 -11 18 -13 29 -2 11 -7 27 -10 35 -23 60 -56 160
-52 160 3 0 -2 11 -11 25 -8 13 -12 30 -8 36 4 8 3 9 -4 5 -11 -7 -16 12 -15
51 1 7 -3 10 -8 7 -5 -3 -10 2 -10 10 -2 19 -4 26 -13 48 -4 9 -9 22 -10 30
-2 7 -6 22 -10 33 -5 11 -14 37 -22 57 -8 21 -11 38 -8 38 4 0 2 6 -3 13 -10
11 -33 74 -37 100 -1 7 -8 23 -15 35 -7 13 -10 26 -7 29 3 4 1 11 -4 18 -5 6
-11 20 -13 31 -1 10 -6 25 -10 31 -19 30 -15 52 14 75 16 13 29 29 29 36 0 7
4 11 8 8 5 -3 16 6 26 19 10 14 23 22 29 18 6 -4 8 0 4 10 -8 22 31 29 182 32
69 1 135 5 146 8 11 4 40 9 65 11 25 3 60 10 79 15 19 6 37 9 39 6 3 -3 10 0
17 5 6 5 20 11 31 13 10 2 27 7 36 11 9 4 22 9 30 10 7 1 30 10 50 20 20 10
42 19 50 20 7 1 65 28 128 59 63 31 120 57 126 57 7 0 14 4 16 9 2 6 18 13 37
16 19 3 37 8 41 10 41 25 389 42 456 22 10 -4 50 -9 88 -12 39 -4 77 -10 85
-14 9 -5 33 -8 53 -7 21 0 40 -4 42 -11 3 -6 21 -10 40 -9 25 1 35 -3 32 -11
-3 -7 2 -10 12 -9 9 2 28 -1 42 -7 14 -5 34 -12 45 -14 11 -2 22 -8 23 -13 2
-6 12 -10 21 -10 10 0 21 -3 25 -7 8 -8 13 -9 42 -12 8 0 13 -5 10 -10 -4 -5
5 -8 20 -6 18 2 24 -1 20 -12 -3 -8 -2 -12 2 -9 9 6 284 -129 277 -135 -2 -3
4 -5 14 -6 10 -1 38 -15 63 -32 25 -17 51 -31 57 -31 6 0 11 -4 11 -10 0 -5 8
-10 17 -10 9 0 24 -6 32 -14 9 -7 41 -27 71 -44 30 -16 92 -50 138 -75 45 -25
82 -43 82 -40 0 3 7 -1 16 -8 9 -7 24 -14 34 -16 11 -1 35 -12 55 -23 19 -11
44 -20 55 -20 11 0 20 -4 20 -10 0 -5 3 -9 8 -9 27 5 52 -2 46 -13 -4 -6 -3
-8 3 -5 6 4 25 2 44 -4 19 -6 63 -13 99 -16 l65 -5 2 32 c1 18 -4 45 -12 61
-8 15 -15 38 -15 51 0 23 1 23 129 22 71 -1 138 -4 147 -8 10 -4 50 -9 89 -12
38 -3 80 -7 93 -10 39 -8 68 5 70 32 1 14 -4 27 -13 30 -8 4 -12 10 -9 15 3 5
-2 9 -11 9 -9 0 -13 5 -10 10 4 6 3 10 -2 9 -14 -4 -63 23 -58 32 3 4 -6 6
-21 4 -17 -1 -24 2 -20 10 2 7 -5 16 -17 19 -12 3 -23 6 -24 6 -2 1 -29 15
-60 33 -32 18 -91 48 -130 67 -40 19 -73 38 -73 43 0 4 -9 7 -21 7 -11 0 -18
4 -14 9 3 6 -4 8 -15 6 -12 -2 -23 2 -27 10 -3 8 -14 15 -24 15 -10 0 -19 5
-19 11 0 5 -4 8 -9 4 -5 -3 -12 -1 -16 5 -10 16 -76 41 -88 33 -5 -3 -7 -1 -4
4 5 8 -102 76 -123 78 -3 0 -12 5 -20 10 -8 5 -48 26 -87 46 -40 19 -70 39
-67 42 4 4 -3 5 -14 2 -12 -2 -23 3 -26 11 -3 9 -10 13 -15 10 -5 -4 -11 -2
-13 3 -1 5 -29 23 -60 39 -32 16 -54 33 -50 37 4 5 1 5 -6 1 -8 -5 -21 -2 -30
7 -19 16 -82 51 -95 52 -4 0 -12 6 -16 14 -6 9 -16 11 -27 7 -10 -4 -15 -4
-12 0 10 9 -40 47 -52 39 -5 -3 -10 1 -10 9 0 9 -8 16 -18 16 -11 0 -27 9 -37
20 -10 11 -24 20 -32 20 -7 0 -13 5 -13 11 0 6 -9 9 -20 6 -10 -3 -18 -1 -17
5 1 5 -26 26 -60 47 -62 38 -72 64 -23 57 27 -5 90 -13 160 -22 25 -3 61 -9
80 -14 54 -13 208 -9 221 6 6 7 19 11 30 9 12 -2 19 2 19 11 0 8 4 13 9 10 9
-6 23 27 24 54 0 25 -33 88 -49 94 -9 3 -12 11 -8 17 4 7 3 9 -4 5 -6 -3 -14
-1 -17 4 -6 9 -60 36 -60 30 0 -1 -13 4 -30 10 -16 6 -57 14 -90 17 -33 3 -84
14 -112 25 -29 11 -58 16 -65 12 -8 -5 -9 -2 -5 10 4 9 3 15 -1 12 -5 -3 -22
2 -38 10 -16 9 -30 15 -31 15 -17 -5 -33 1 -27 11 4 6 3 8 -4 4 -6 -3 -26 0
-44 8 -58 26 -80 33 -104 35 -8 0 -12 6 -9 11 4 6 3 10 -2 9 -24 -4 -43 2 -37
13 4 6 3 8 -3 5 -5 -3 -36 5 -68 18 -33 13 -63 21 -67 19 -4 -3 -8 2 -8 10 0
9 -9 16 -20 16 -11 0 -20 5 -20 11 0 6 -7 9 -15 6 -8 -4 -17 -2 -21 4 -6 11
-44 28 -55 25 -4 0 -15 6 -25 15 -16 14 -45 29 -64 34 -3 0 -21 9 -40 20 -19
11 -37 20 -40 20 -3 0 -15 7 -28 14 -13 7 -30 10 -39 7 -10 -4 -13 -2 -10 7 3
8 -3 14 -16 14 -11 1 -23 6 -26 11 -6 9 -38 22 -54 22 -4 -1 -15 6 -24 15 -8
9 -22 14 -29 11 -8 -3 -11 0 -7 10 4 10 0 12 -11 8 -10 -4 -18 0 -22 10 -3 9
-10 14 -14 11 -5 -3 -11 -1 -15 5 -3 5 -25 19 -49 30 -23 10 -49 26 -56 35 -7
9 -20 13 -28 10 -10 -3 -12 0 -8 10 3 8 2 14 -2 13 -10 -3 -53 21 -79 44 -12
12 -27 17 -34 13 -7 -5 -10 -4 -6 2 4 6 -12 23 -36 39 -23 16 -51 37 -61 47
-11 9 -26 17 -33 17 -8 0 -12 4 -9 9 5 8 -29 25 -46 22 -5 -1 -8 6 -8 14 0 8
-3 14 -7 13 -13 -3 -113 63 -113 75 0 5 -3 8 -6 4 -3 -3 -28 10 -55 29 -28 19
-55 32 -61 28 -6 -4 -8 -3 -4 4 6 10 -133 102 -155 102 -6 0 -7 5 -3 12 5 7 3
8 -6 3 -8 -5 -18 -1 -27 10 -7 11 -13 15 -13 10 0 -4 -9 0 -20 10 -11 10 -20
14 -20 10 0 -4 -9 0 -19 9 -11 10 -25 15 -32 10 -8 -5 -11 -2 -7 7 4 10 -1 15
-15 17 -12 0 -23 6 -25 12 -2 5 -12 10 -21 10 -10 0 -26 9 -36 20 -10 11 -20
18 -23 15 -3 -3 -10 -1 -16 4 -32 25 -109 60 -118 55 -7 -5 -9 -2 -6 7 4 10
-1 15 -15 16 -11 1 -23 7 -27 13 -4 6 -13 10 -21 8 -8 -2 -13 2 -12 9 1 6 -8
10 -22 9 -14 -2 -26 3 -30 12 -3 8 -8 12 -12 9 -3 -3 -19 1 -35 9 -16 8 -32
12 -37 9 -5 -2 -11 1 -14 9 -4 9 -16 13 -32 12 -19 -3 -25 1 -21 10 3 8 2 13
-2 12 -12 -4 -102 24 -108 33 -3 5 -14 9 -24 9 -11 0 -35 9 -55 20 -19 11 -37
20 -40 20 -3 0 -12 0 -21 0 -9 0 -12 5 -8 12 4 6 3 8 -4 4 -6 -3 -26 0 -44 8
-47 20 -168 68 -180 71 -5 2 -15 3 -24 4 -9 0 -12 6 -8 13 4 7 3 8 -4 4 -14
-8 -72 20 -72 36 0 6 -3 9 -6 5 -5 -5 -33 15 -68 49 -6 6 -17 9 -25 6 -8 -3
-11 0 -7 7 9 14 -15 39 -32 33 -7 -2 -11 2 -10 10 2 7 -3 12 -10 10 -8 -1 -11
2 -8 7 7 11 -43 111 -55 111 -4 0 -6 9 -4 20 2 11 0 20 -6 20 -5 0 -9 6 -9 14
0 8 -6 21 -13 28 -7 7 -12 20 -12 28 1 8 -5 25 -13 37 -8 12 -10 28 -6 34 4 7
3 9 -3 6 -16 -10 -23 32 -8 47 15 15 15 37 -1 57 -13 17 -11 45 2 42 5 -1 10
11 9 27 0 22 -4 27 -22 25 -13 -1 -19 3 -17 10 3 6 -2 18 -10 25 -9 7 -13 17
-9 23 4 6 0 8 -10 4 -11 -4 -14 -2 -11 7 3 7 -2 19 -10 26 -9 7 -13 17 -9 23
3 6 1 7 -5 3 -7 -4 -12 -1 -12 9 0 9 -4 13 -10 10 -5 -3 -10 -2 -10 4 0 5 -11
23 -25 39 -13 16 -21 33 -17 37 4 5 2 6 -3 2 -6 -3 -22 11 -35 31 -14 20 -31
41 -38 45 -7 5 -9 13 -6 19 5 7 1 9 -9 5 -11 -4 -14 -2 -10 9 4 10 0 12 -13 7
-9 -3 -15 -2 -12 3 2 5 12 25 21 45 14 30 25 39 61 49 31 8 43 16 39 26 -3 10
0 12 10 8 16 -6 30 10 34 38 2 10 -3 17 -10 15 -6 -1 -11 4 -9 11 1 8 -2 11
-8 7 -12 -7 -40 12 -40 27 0 6 6 8 13 5 12 -4 29 8 38 28 2 6 6 9 9 8 3 -1 7
12 8 28 3 33 -16 45 -75 48 -7 1 -13 12 -13 25 0 13 -7 29 -15 36 -19 15 -102
20 -135 8z"/>
</g>
</svg>
